<svg xmlns="http://www.w3.org/2000/svg" style="display: none;">
            <!-- Vos icônes personnalisées -->
    <symbol acf-family="logos" title="Logo-full" id="logo-full" acf-hide="false"  xmlns="http://www.w3.org/2000/svg" fill="none" viewBox="0 0 146 45">
        <path fill="#003c4d" d="M23.759 21.858c1.129-.395 2.145-.379 2.999-.166l.157.042a5.75 5.75 0 0 1 2.57 1.58l.073.082.055.07c.552.733.453 1.8-.208 2.448-.695.683-1.789.675-2.43-.07l-.049-.051a2.4 2.4 0 0 0-.612-.435 1.96 1.96 0 0 0-1.605-.076c-.925.346-1.9-.171-2.172-1.118-.263-.915.212-1.93 1.111-2.267h.001z"/>
        <path fill="#003c4d" fill-rule="evenodd" d="M12.22 3.186a3.2 3.2 0 0 1 2.457-.012l.076.032.002.001.303.139c1.519.703 3.794 1.92 6.596 3.925l.291.21.328.24a60 60 0 0 1 4.55 3.726l.32.29.001.002.286.268c2.948 2.796 5.613 6.459 7.544 10.367l.136.28a18.4 18.4 0 0 1 1.443 4.43l.008.045v.004c.158.832.277 1.618.084 2.495-.185.837-.641 1.71-1.507 2.786l-.179.218a15.52 15.52 0 0 1-7.445 4.898l-.28.08a11.7 11.7 0 0 1-3.113.423c-2.286 0-4.581-.668-6.767-1.968-2.548-1.521-4.298-3.92-4.947-6.774l-.06-.278a10.7 10.7 0 0 1 .01-4.253c-.91.323-1.931.682-3.173 1.091l-.61.2a2.99 2.99 0 0 1-3.15-.847c-2.291-2.564-3.59-5.265-3.93-8.254a2.943 2.943 0 0 1 2.343-3.227l.455-.09a51 51 0 0 1 5.527-.741 3.2 3.2 0 0 1-.14-.768v-.002c-.088-1.566-.111-4.616.796-7.104a3.18 3.18 0 0 1 1.746-1.832m1.763 4.054c-.347 1.485-.362 3.19-.326 4.216.77.432 1.748.893 2.86 1.346l.093.04a2.114 2.114 0 0 1 1.17 2.463 2.13 2.13 0 0 1-2.323 1.583c-3.598-.413-7.818.189-9.827.541.348 1.592 1.12 3.114 2.357 4.62 1.315-.436 2.378-.812 3.335-1.151l1.028-.364a40 40 0 0 1 2.826-.895h.003l.002-.002q.27-.069.55-.07c.67 0 1.315.315 1.722.867l.038.054h.001l.046.071c.463.735.431 1.68-.091 2.382a6.68 6.68 0 0 0-1.169 5.287l.037.174c.407 1.789 1.5 3.289 3.1 4.244l.216.125c2.225 1.264 4.415 1.584 6.538 1l.198-.057q.52-.154 1.024-.36l-.071-.658a2.52 2.52 0 0 1 .645-1.967 2.6 2.6 0 0 1 1.898-.83h.005l2.157.014c.457-.558.624-.818.686-1.034.055-.19.04-.374-.045-.84l-.041-.217a14.6 14.6 0 0 0-1.132-3.48l-.106-.218c-1.788-3.618-4.263-6.981-6.957-9.472a56 56 0 0 0-4.842-3.966c-2.38-1.724-4.338-2.817-5.605-3.446" clip-rule="evenodd"/>
        <path fill="#003c4d" d="M50.702 28.438a3 3 0 0 0-.027.423q0 .528.292.766.32.21 1.036.211h1.752l-.558 3.117h-2.362q-3.982 0-3.982-3.302 0-.633.106-1.241l1.248-7.052h-1.752l.53-3.037h1.78l.636-3.619h3.743l-.637 3.619h3.265l-.531 3.037H51.95zM56.215 25.586q.397-2.22 1.566-3.936 1.194-1.716 2.894-2.64a7.4 7.4 0 0 1 3.583-.925q1.645 0 2.76.66 1.142.66 1.673 1.664l.371-2.086h3.743l-2.601 14.632H66.46l.398-2.14q-.876 1.031-2.282 1.717-1.38.66-3.027.66-1.619 0-2.866-.713a5.07 5.07 0 0 1-1.938-2.06q-.69-1.347-.69-3.116 0-.82.159-1.717m11.547.053q.105-.687.106-1.004 0-1.559-.929-2.43-.903-.871-2.283-.871-1.035 0-2.017.501-.956.502-1.672 1.48-.717.95-.956 2.27-.08.502-.08.952 0 1.585.903 2.509.901.898 2.283.898 1.035 0 2.017-.502a4.85 4.85 0 0 0 1.672-1.506q.717-.977.956-2.297M74.205 25.639q.398-2.272 1.62-3.962 1.22-1.717 3.025-2.641a8.46 8.46 0 0 1 3.956-.951q2.733 0 4.273 1.347 1.566 1.346 1.752 3.83h-4.008q-.159-.95-.823-1.48-.663-.554-1.778-.554-1.593 0-2.735 1.162-1.114 1.136-1.486 3.249a7.3 7.3 0 0 0-.133 1.267q0 1.506.744 2.325.743.792 2.07.792 2.23 0 3.291-2.007h4.009q-1.036 2.376-3.106 3.777-2.044 1.4-4.725 1.4-2.787 0-4.46-1.559-1.645-1.584-1.645-4.279 0-.818.16-1.716M96.385 33.193q-1.886 0-3.345-.767a5.5 5.5 0 0 1-2.23-2.165q-.796-1.4-.796-3.222 0-2.483 1.168-4.517a8.8 8.8 0 0 1 3.238-3.249q2.07-1.188 4.593-1.188 1.884 0 3.344.792 1.487.766 2.283 2.166.823 1.4.823 3.222 0 2.51-1.195 4.543a8.74 8.74 0 0 1-3.291 3.222q-2.07 1.163-4.592 1.163m.504-3.17q1.327 0 2.416-.766a5.2 5.2 0 0 0 1.698-2.034 6.1 6.1 0 0 0 .611-2.667q0-1.585-.903-2.43-.876-.872-2.23-.872-1.353 0-2.415.766-1.035.766-1.62 2.06a6.4 6.4 0 0 0-.583 2.694q0 1.559.823 2.404.849.845 2.203.845M111.878 28.438a3 3 0 0 0-.026.423q0 .528.292.766.318.21 1.035.211h1.752l-.557 3.117h-2.363q-3.981 0-3.982-3.302 0-.633.107-1.241l1.247-7.052h-1.752l.531-3.037h1.779l.637-3.619h3.743l-.638 3.619h3.265l-.53 3.037h-3.292zM117.392 25.586q.398-2.22 1.566-3.936 1.194-1.716 2.893-2.64a7.4 7.4 0 0 1 3.584-.925q1.645 0 2.76.66 1.142.66 1.672 1.664l.372-2.086h3.743l-2.602 14.632h-3.742l.398-2.14q-.876 1.031-2.283 1.717-1.38.66-3.026.66-1.619 0-2.867-.713a5.1 5.1 0 0 1-1.938-2.06q-.69-1.347-.69-3.116 0-.82.16-1.717m11.546.053q.107-.687.107-1.004 0-1.559-.929-2.43-.903-.871-2.283-.871-1.035 0-2.018.501-.955.502-1.672 1.48-.716.95-.956 2.27a6 6 0 0 0-.079.952q0 1.585.902 2.509.903.898 2.283.898 1.035 0 2.017-.502a4.85 4.85 0 0 0 1.673-1.506q.717-.977.955-2.297M138.169 17.583q.478-2.694 2.23-3.962 1.751-1.268 4.831-1.188l-.531 3.116q-1.327-.026-1.965.45-.636.474-.849 1.716l-.106.608h2.575l-.531 3.037h-2.575l-2.071 11.595h-3.742l2.07-11.595h-1.699l.531-3.037h1.699z"/>
    </symbol>
    <!-- Logo de votre app -->
    <symbol id="logo" viewBox="0 0 100 100">
        <circle cx="50" cy="50" r="40" fill="currentColor"/>
        <text x="50" y="55" text-anchor="middle" fill="white" font-size="20" font-weight="bold">L</text>
    </symbol>

    <!-- Icône custom -->
    <symbol id="custom-icon" viewBox="0 0 24 24">
        <path d="M12 2L2 7L12 12L22 7L12 2Z" fill="currentColor"/>
        <path d="M2 17L12 22L22 17" fill="currentColor"/>
        <path d="M2 12L12 17L22 12" fill="currentColor"/>
    </symbol>

    <symbol id="logo-full" viewBox="0 0 147 36">
        <path d="M23.1247 18.9885C24.2542 18.5935 25.2703 18.6101 26.1239 18.8225L26.2816 18.8645C27.6813 19.2606 28.5889 20.1587 28.8504 20.4442L28.9236 20.527L28.9795 20.5975C29.5316 21.33 29.4321 22.3977 28.7712 23.045C28.0755 23.7274 26.9826 23.7196 26.3416 22.9753L26.2921 22.9237C26.2008 22.8329 25.987 22.6404 25.6801 22.4888C25.2828 22.2926 24.7384 22.1666 24.075 22.4133C23.1498 22.7588 22.1748 22.2418 21.9029 21.2949C21.6405 20.3804 22.1156 19.364 23.0143 19.0284L23.1247 18.9885Z" fill="#003C4D"/>
        <path fill-rule="evenodd" clip-rule="evenodd" d="M11.5869 0.316961C12.3691 -0.0147246 13.2597 -0.0178735 14.0436 0.30502L14.1192 0.337262L14.1212 0.338217L14.4246 0.476502C15.943 1.17952 18.2183 2.39691 21.0199 4.40197L21.3115 4.61214L21.6392 4.85217C23.167 5.98011 24.6946 7.22984 26.1889 8.57796L26.5087 8.86839L26.5103 8.87006L26.7964 9.13779C29.7446 11.9334 32.409 15.5967 34.3406 19.5048L34.476 19.784C35.1402 21.1855 35.624 22.6747 35.9188 24.2149L35.9275 24.2602V24.2636C36.0855 25.0958 36.2039 25.8818 36.0107 26.7587C35.8262 27.5964 35.3699 28.4687 34.5041 29.5451L34.3255 29.7632C32.3973 32.0749 29.7637 33.8062 26.8802 34.6612L26.6003 34.7412C25.5765 35.0228 24.5356 35.1639 23.4876 35.1639C21.2013 35.1639 18.9058 34.496 16.72 33.1962C14.1729 31.675 12.4225 29.275 11.7729 26.4217L11.7134 26.1441C11.4282 24.7243 11.4375 23.277 11.7225 21.8912C10.8123 22.214 9.79201 22.573 8.55029 22.9822L7.93989 23.1817C6.81421 23.5457 5.5791 23.215 4.79093 22.3348C2.49958 19.7714 1.20038 17.07 0.859234 14.0812C0.686454 12.5547 1.69243 11.1644 3.20289 10.8536L3.65823 10.7633C4.77494 10.5488 6.81946 10.2033 9.18541 10.0229C9.10759 9.77576 9.05988 9.51771 9.04451 9.25458V9.25338C8.95763 7.6873 8.9338 4.63707 9.84142 2.14929C10.1406 1.32704 10.778 0.659103 11.5869 0.316961ZM13.3492 4.37116C13.0024 5.85615 12.9876 7.56 13.023 8.58704C13.7936 9.01853 14.7709 9.47937 15.8835 9.93287L15.9759 9.97299C16.9158 10.4067 17.4061 11.4306 17.1463 12.4358C16.8755 13.4726 15.8978 14.1432 14.8232 14.0188C11.2252 13.6064 7.00472 14.2076 4.99592 14.5603C5.34431 16.1515 6.11524 17.6736 7.35302 19.1795C8.66797 18.7441 9.7309 18.3678 10.6882 18.0284L11.7158 17.6651C12.7031 17.3198 13.5886 17.0266 14.5417 16.7699L14.5448 16.769L14.5477 16.7683C14.7263 16.7226 14.91 16.6971 15.0974 16.6971C15.7679 16.6971 16.4121 17.0129 16.8189 17.5645L16.8575 17.6185L16.8582 17.6197L16.9046 17.6902C17.3669 18.4244 17.3352 19.3696 16.8129 20.0721C15.6994 21.5705 15.2717 23.4973 15.6442 25.3591L15.6814 25.5332C16.0881 27.3215 17.1809 28.8218 18.7821 29.7768L18.9976 29.9019C21.2219 31.1658 23.4125 31.4864 25.5356 30.9015L25.7331 30.8451C26.0794 30.7425 26.4212 30.6218 26.7571 30.4857L26.686 29.8267C26.6084 29.1087 26.8443 28.3938 27.3308 27.8602C27.8206 27.3229 28.5219 27.0317 29.2292 27.029H29.2344L31.3906 27.0443C31.8477 26.4857 32.0146 26.2255 32.0774 26.0097C32.1326 25.8196 32.1175 25.6362 32.0318 25.1707L31.9907 24.9531C31.7576 23.7389 31.3777 22.5699 30.8587 21.473L30.7531 21.2548C28.9648 17.6372 26.4903 14.2736 23.7961 11.7831C22.2086 10.332 20.5773 8.99659 18.9542 7.81728C16.5743 6.09254 14.6164 5.00014 13.3492 4.37116Z" fill="#003C4D"/>
        <path d="M51.861 23.2428C51.8433 23.3485 51.8344 23.4893 51.8344 23.6654C51.8344 24.0176 51.9318 24.2729 52.1264 24.4313C52.3388 24.5722 52.6839 24.6426 53.1617 24.6426H54.9136L54.3562 27.7593H51.9937C49.3393 27.7593 48.0121 26.6588 48.0121 24.4578C48.0121 24.0352 48.0475 23.6214 48.1182 23.2164L49.3658 16.1644H47.6139L48.1448 13.127H49.9233L50.5603 9.50857H54.3031L53.666 13.127H56.931L56.4001 16.1644H53.1086L51.861 23.2428Z" fill="#003C4D"/>
        <path d="M57.3741 20.3903C57.6396 18.9112 58.1616 17.5994 58.9403 16.4549C59.7366 15.3104 60.701 14.43 61.8336 13.8137C62.9662 13.1974 64.1607 12.8893 65.4171 12.8893C66.5143 12.8893 67.4345 13.1094 68.1777 13.5496C68.9387 13.9898 69.4961 14.5445 69.85 15.2136L70.2216 13.127H73.9644L71.363 27.7593H67.6203L68.0184 25.6199C67.4345 26.3066 66.6735 26.8789 65.7356 27.3367C64.8154 27.7769 63.8067 27.997 62.7096 27.997C61.6301 27.997 60.6745 27.7593 59.8428 27.2838C59.011 26.7908 58.3651 26.1041 57.905 25.2237C57.4449 24.3257 57.2149 23.2868 57.2149 22.1071C57.2149 21.5612 57.268 20.989 57.3741 20.3903ZM68.921 20.4431C68.9917 19.9853 69.0271 19.6508 69.0271 19.4395C69.0271 18.4006 68.7175 17.5906 68.0981 17.0096C67.4964 16.4285 66.7355 16.138 65.8153 16.138C65.1251 16.138 64.4527 16.3053 63.7979 16.6398C63.1608 16.9744 62.6034 17.4674 62.1256 18.1189C61.6478 18.7528 61.3293 19.5099 61.17 20.3903C61.1169 20.7249 61.0904 21.0418 61.0904 21.3411C61.0904 22.3976 61.3912 23.234 61.9929 23.8503C62.5945 24.449 63.3555 24.7483 64.2757 24.7483C64.9658 24.7483 65.6383 24.581 66.2931 24.2465C66.9478 23.8943 67.5053 23.3925 67.9654 22.741C68.4432 22.0895 68.7617 21.3235 68.921 20.4431Z" fill="#003C4D"/>
        <path d="M75.3642 20.4431C75.6296 18.9289 76.1694 17.6083 76.9834 16.4813C77.7974 15.3368 78.8061 14.4564 80.0095 13.8401C81.2305 13.2063 82.5489 12.8893 83.9646 12.8893C85.7873 12.8893 87.2119 13.3383 88.2382 14.2363C89.2823 15.1343 89.8663 16.4109 89.9902 18.0661H85.982C85.8758 17.4322 85.6015 16.9391 85.1591 16.587C84.7167 16.2172 84.1239 16.0323 83.3806 16.0323C82.3188 16.0323 81.4075 16.4197 80.6465 17.1945C79.9033 17.9516 79.4078 19.0345 79.16 20.4431C79.0716 20.9362 79.0273 21.3588 79.0273 21.7109C79.0273 22.7146 79.2751 23.4893 79.7706 24.0352C80.2661 24.5634 80.9562 24.8275 81.841 24.8275C83.3275 24.8275 84.4247 24.1584 85.1325 22.8202H89.1407C88.4506 24.4049 87.4154 25.6639 86.035 26.5971C84.6724 27.5304 83.0975 27.997 81.3101 27.997C79.452 27.997 77.9655 27.4775 76.8507 26.4387C75.7535 25.3822 75.2049 23.9559 75.2049 22.1599C75.2049 21.6141 75.258 21.0418 75.3642 20.4431Z" fill="#003C4D"/>
        <path d="M97.5437 27.997C96.2873 27.997 95.1724 27.7417 94.1991 27.231C93.2435 26.7204 92.5003 25.9985 91.9694 25.0652C91.4385 24.132 91.173 23.0579 91.173 21.843C91.173 20.1878 91.5624 18.6823 92.341 17.3265C93.1373 15.9531 94.2168 14.8702 95.5794 14.0778C96.9597 13.2855 98.4904 12.8893 100.172 12.8893C101.428 12.8893 102.543 13.1534 103.516 13.6817C104.507 14.1923 105.268 14.9142 105.799 15.8475C106.348 16.7807 106.622 17.8548 106.622 19.0697C106.622 20.7425 106.224 22.2568 105.427 23.6126C104.631 24.9684 103.534 26.0425 102.136 26.8348C100.756 27.6096 99.2248 27.997 97.5437 27.997ZM98.048 24.8275C98.9329 24.8275 99.738 24.5722 100.464 24.0616C101.189 23.5509 101.755 22.873 102.162 22.0279C102.569 21.1827 102.773 20.2935 102.773 19.3602C102.773 18.3038 102.472 17.4938 101.87 16.9303C101.286 16.3493 100.543 16.0587 99.6407 16.0587C98.7382 16.0587 97.933 16.3141 97.2252 16.8247C96.535 17.3353 95.9953 18.022 95.606 18.8848C95.2166 19.73 95.022 20.628 95.022 21.5789C95.022 22.6177 95.2963 23.4189 95.8449 23.9823C96.4111 24.5458 97.1455 24.8275 98.048 24.8275Z" fill="#003C4D"/>
        <path d="M113.038 23.2428C113.02 23.3485 113.011 23.4893 113.011 23.6654C113.011 24.0176 113.108 24.2729 113.303 24.4313C113.515 24.5722 113.86 24.6426 114.338 24.6426H116.09L115.533 27.7593H113.17C110.516 27.7593 109.189 26.6588 109.189 24.4578C109.189 24.0352 109.224 23.6214 109.295 23.2164L110.542 16.1644H108.79L109.321 13.127H111.1L111.737 9.50857H115.48L114.843 13.127H118.108L117.577 16.1644H114.285L113.038 23.2428Z" fill="#003C4D"/>
        <path d="M118.551 20.3903C118.816 18.9112 119.338 17.5994 120.117 16.4549C120.913 15.3104 121.878 14.43 123.01 13.8137C124.143 13.1974 125.337 12.8893 126.594 12.8893C127.691 12.8893 128.611 13.1094 129.354 13.5496C130.115 13.9898 130.673 14.5445 131.027 15.2136L131.398 13.127H135.141L132.54 27.7593H128.797L129.195 25.6199C128.611 26.3066 127.85 26.8789 126.912 27.3367C125.992 27.7769 124.983 27.997 123.886 27.997C122.807 27.997 121.851 27.7593 121.019 27.2838C120.188 26.7908 119.542 26.1041 119.082 25.2237C118.621 24.3257 118.391 23.2868 118.391 22.1071C118.391 21.5612 118.445 20.989 118.551 20.3903ZM130.098 20.4431C130.168 19.9853 130.204 19.6508 130.204 19.4395C130.204 18.4006 129.894 17.5906 129.275 17.0096C128.673 16.4285 127.912 16.138 126.992 16.138C126.302 16.138 125.629 16.3053 124.974 16.6398C124.337 16.9744 123.78 17.4674 123.302 18.1189C122.824 18.7528 122.506 19.5099 122.347 20.3903C122.293 20.7249 122.267 21.0418 122.267 21.3411C122.267 22.3976 122.568 23.234 123.169 23.8503C123.771 24.449 124.532 24.7483 125.452 24.7483C126.142 24.7483 126.815 24.581 127.47 24.2465C128.124 23.8943 128.682 23.3925 129.142 22.741C129.62 22.0895 129.938 21.3235 130.098 20.4431Z" fill="#003C4D"/>
        <path d="M139.328 12.3875C139.646 10.5915 140.39 9.27087 141.558 8.42568C142.726 7.5805 144.336 7.18432 146.389 7.23714L145.858 10.3538C144.973 10.3362 144.318 10.4858 143.894 10.8028C143.469 11.1197 143.186 11.692 143.044 12.5195L142.938 13.127H145.513L144.982 16.1644H142.407L140.337 27.7593H136.594L138.664 16.1644H136.965L137.496 13.127H139.195L139.328 12.3875Z" fill="#003C4D"/>
    </symbol>

</svg>
